<?xml version="1.0" encoding="utf-8"?>
<!-- Generator: Adobe Illustrator 27.7.0, SVG Export Plug-In . SVG Version: 6.00 Build 0)  -->
<svg version="1.1" id="Layer_1" xmlns="http://www.w3.org/2000/svg" xmlns:xlink="http://www.w3.org/1999/xlink" x="0px" y="0px"
	 viewBox="0 0 792 612" style="enable-background:new 0 0 792 612;" xml:space="preserve" width="400" height="100">
<style type="text/css">
	.st0{fill:#BEE2D1;}
	.st1{fill:#010101;}
	.st2{font-family:'Boreal-Medium';}
	.st3{font-size:39.3776px;}

</style>
<g>
	<g>
		<path class="st0" d="M179.1,279.7c0,0-1.5-30.4,26.7-33.8C220.8,275.1,180,281.5,179.1,279.7z"/>
		<path class="st1" d="M180.6,282.1c-2.8,0-3.1-0.9-3.4-1.2l-0.3-0.3V280c0-0.3-0.3-8.3,3.1-16.6c3.1-8,10.1-17.5,25.5-19.3l0,0
			c0.9,0,1.5,0.3,1.8,1.2l0,0c8.9,17.5-1.2,27-8,31.3c-3.1,1.8-6.1,3.1-8.9,4c-2.1,0.9-4.6,1.2-7.1,1.2
			C182.4,282.1,181.5,282.1,180.6,282.1z M203,248.7c-17.5,3.4-21.2,19-21.8,26.7c0,1.5,0.9,2.5,2.5,2.5c5.5-0.9,16-4,20.9-11
			c3.4-4.6,3.7-10.1,0.9-16.6C204.8,249,203.9,248.4,203,248.7z"/>
	</g>
	<g>
		<path class="st0" d="M173.8,301.1c0,0-5.8-31.6-31.6-27.3C135.5,308.2,173.2,303.3,173.8,301.1z"/>
		<path class="st1" d="M164.3,304.5c-2.1,0-4.9-0.3-8-0.9c-6.1-1.2-11-4.3-14.1-8.6c-4-5.5-4.9-12.9-3.4-21.8l0,0
			c0.3-0.9,0.9-1.5,1.5-1.5l0,0c11.4-2.1,20.9,2.5,27.6,12.9c4.9,7.7,6.4,15.6,6.4,16v0.3v0.3c-0.3,0.9-0.3,2.5-6.4,3.1
			C166.2,304.5,165.6,304.5,164.3,304.5z M142.8,275.7c-1.5,9.5,0.6,16.3,6.1,20.3c7.1,5.2,17.8,4.6,21.5,3.7
			c-0.6-2.5-2.1-8-5.5-13.2C159.4,278.1,152,274.4,142.8,275.7z"/>
	</g>
	<path d="M174.1,319.9c-0.9,0-1.8-0.9-1.8-1.8c0-5.5-0.3-22.4,0.9-27.6c1.5-5.8,4.9-13.2,4.9-13.5l0.3-0.3l20.6-18.7
		c0.6-0.6,1.8-0.6,2.5,0.3l0,0c0.6,0.6,0.6,1.8-0.3,2.5l-19.6,17.8c-0.3,0.3-0.3,0.3-0.6,0.6c-0.9,2.1-3.1,7.7-4.6,12.3
		c-1.2,4.3-1.2,19-0.9,26.4C175.7,318.9,175.4,319.5,174.1,319.9L174.1,319.9z"/>
	<path d="M170.5,302.1l-19.6-13.2c-0.9-0.6-0.9-1.8-0.6-2.5l0,0c0.6-0.9,1.5-1.2,2.5-0.6l19.6,13.2c0.9,0.6,0.9,1.8,0.6,2.5l0,0
		C172.6,302.4,171.4,302.7,170.5,302.1z"/>
</g>
<text transform="matrix(1 0 0 1 230.9473 273.958)" class="st1 st2 st3">Code the Change</text>
<text transform="matrix(1 0 0 1 230.9473 321.2139)" class="st1 st2 st3">Harvey Mudd College</text>
</svg>
